HIERARCHY
ROOT Hips
{
	OFFSET -0.087744 88.518600 4.106688
	CHANNELS 6 Xposition Yposition Zposition Zrotation Yrotation Xrotation 
	JOINT Spine
	{
		OFFSET 0.000000 8.814246 -2.080107
		CHANNELS 3 Zrotation Yrotation Xrotation
		JOINT Spine1
		{
			OFFSET -0.000000 8.844141 -0.000000
			CHANNELS 3 Zrotation Yrotation Xrotation
			JOINT Spine2
			{
				OFFSET 0.000000 11.682268 0.000000
				CHANNELS 3 Zrotation Yrotation Xrotation
				JOINT Spine3
				{
					OFFSET 0.000000 11.746700 0.000000
					CHANNELS 3 Zrotation Yrotation Xrotation
					JOINT Neck
					{
						OFFSET 0.000000 17.658264 -0.000000
						CHANNELS 3 Zrotation Yrotation Xrotation
						JOINT Neck1
						{
							OFFSET -0.000000 5.101515 -0.000000
							CHANNELS 3 Zrotation Yrotation Xrotation
							JOINT Head
							{
								OFFSET -0.000000 5.101515 -0.000000
								CHANNELS 3 Zrotation Yrotation Xrotation
								JOINT HeadEnd
								{
									OFFSET 0.000000 11.655085 0.000000
									CHANNELS 3 Zrotation Yrotation Xrotation
									End Site
									{
										OFFSET 0.000000 0.000000 0.000000
									}
								}
							}
						}
					}
					JOINT RightShoulder
					{
						OFFSET -2.625389 11.175210 0.000000
						CHANNELS 3 Zrotation Yrotation Xrotation
						JOINT RightArm
						{
							OFFSET 0.000000 10.434715 -0.000000
							CHANNELS 3 Zrotation Yrotation Xrotation
							JOINT RightForeArm
							{
								OFFSET -0.000000 29.628420 0.000000
								CHANNELS 3 Zrotation Yrotation Xrotation
								JOINT RightHand
								{
									OFFSET -0.000000 22.857611 0.000000
									CHANNELS 3 Zrotation Yrotation Xrotation
									JOINT RightHandThumb1
									{
										OFFSET -2.867323 3.959563 2.944291
										CHANNELS 3 Zrotation Yrotation Xrotation
										JOINT RightHandThumb2
										{
											OFFSET -0.000000 3.350399 0.000000
											CHANNELS 3 Zrotation Yrotation Xrotation
											JOINT RightHandThumb3
											{
												OFFSET 0.000000 3.756509 -0.000000
												CHANNELS 3 Zrotation Yrotation Xrotation
												JOINT RightHandThumb4
												{
													OFFSET -0.000000 3.147345 0.000000
													CHANNELS 3 Zrotation Yrotation Xrotation
													End Site
													{
														OFFSET 0.000000 0.000000 0.000000
													}
												}
											}
										}
									}
									JOINT RightHandIndex1
									{
										OFFSET -0.086752 10.030893 2.345280
										CHANNELS 3 Zrotation Yrotation Xrotation
										JOINT RightHandIndex2
										{
											OFFSET 0.000000 4.061090 -0.000000
											CHANNELS 3 Zrotation Yrotation Xrotation
											JOINT RightHandIndex3
											{
												OFFSET 0.000000 3.248873 -0.000000
												CHANNELS 3 Zrotation Yrotation Xrotation
												JOINT RightHandIndex4
												{
													OFFSET 0.000000 2.639709 -0.000000
													CHANNELS 3 Zrotation Yrotation Xrotation
													End Site
													{
														OFFSET 0.000000 0.000000 0.000000
													}
												}
											}
										}
									}
									JOINT RightHandMiddle1
									{
										OFFSET 0.104102 9.502952 0.006768
										CHANNELS 3 Zrotation Yrotation Xrotation
										JOINT RightHandMiddle2
										{
											OFFSET 0.000000 4.568727 -0.000000
											CHANNELS 3 Zrotation Yrotation Xrotation
											JOINT RightHandMiddle3
											{
												OFFSET -0.000000 3.654981 0.000000
												CHANNELS 3 Zrotation Yrotation Xrotation
												JOINT RightHandMiddle4
												{
													OFFSET 0.000000 2.741236 0.000000
													CHANNELS 3 Zrotation Yrotation Xrotation
													End Site
													{
														OFFSET 0.000000 0.000000 0.000000
													}
												}
											}
										}
									}
									JOINT RightHandRing1
									{
										OFFSET 0.086752 8.921708 -2.267442
										CHANNELS 3 Zrotation Yrotation Xrotation
										JOINT RightHandRing2
										{
											OFFSET 0.000000 4.061090 -0.000000
											CHANNELS 3 Zrotation Yrotation Xrotation
											JOINT RightHandRing3
											{
												OFFSET -0.000000 3.654981 0.000000
												CHANNELS 3 Zrotation Yrotation Xrotation
												JOINT RightHandRing4
												{
													OFFSET 0.000000 2.741236 -0.000000
													CHANNELS 3 Zrotation Yrotation Xrotation
													End Site
													{
														OFFSET 0.000000 0.000000 0.000000
													}
												}
											}
										}
									}
									JOINT RightHandPinky1
									{
										OFFSET -0.173504 7.976997 -4.467199
										CHANNELS 3 Zrotation Yrotation Xrotation
										JOINT RightHandPinky2
										{
											OFFSET 0.000000 3.350399 0.000000
											CHANNELS 3 Zrotation Yrotation Xrotation
											JOINT RightHandPinky3
											{
												OFFSET 0.000000 2.842763 -0.000000
												CHANNELS 3 Zrotation Yrotation Xrotation
												JOINT RightHandPinky4
												{
													OFFSET -0.000000 2.639709 -0.000000
													CHANNELS 3 Zrotation Yrotation Xrotation
													End Site
													{
														OFFSET 0.000000 0.000000 0.000000
													}
												}
											}
										}
									}
									JOINT RightForeArmEnd
									{
										OFFSET 0.000000 0.000000 0.000000
										CHANNELS 3 Zrotation Yrotation Xrotation
										End Site
										{
											OFFSET 0.000000 0.000000 0.000000
										}
									}
								}
								JOINT RightArmEnd
								{
									OFFSET 0.000000 0.000000 0.000000
									CHANNELS 3 Zrotation Yrotation Xrotation
									End Site
									{
										OFFSET 0.000000 0.000000 0.000000
									}
								}
							}
						}
					}
					JOINT LeftShoulder
					{
						OFFSET 2.625389 11.175210 -0.000000
						CHANNELS 3 Zrotation Yrotation Xrotation
						JOINT LeftArm
						{
							OFFSET -0.000000 10.813635 0.000000
							CHANNELS 3 Zrotation Yrotation Xrotation
							JOINT LeftForeArm
							{
								OFFSET -0.000000 28.724781 0.000000
								CHANNELS 3 Zrotation Yrotation Xrotation
								JOINT LeftHand
								{
									OFFSET 0.644384 25.716167 -0.328871
									CHANNELS 3 Zrotation Yrotation Xrotation
									JOINT LeftHandThumb1
									{
										OFFSET 2.867323 3.959563 2.944291
										CHANNELS 3 Zrotation Yrotation Xrotation
										JOINT LeftHandThumb2
										{
											OFFSET -0.000000 3.350399 0.000000
											CHANNELS 3 Zrotation Yrotation Xrotation
											JOINT LeftHandThumb3
											{
												OFFSET -0.000000 3.756509 -0.000000
												CHANNELS 3 Zrotation Yrotation Xrotation
												JOINT LeftHandThumb4
												{
													OFFSET 0.000000 3.100000 -0.000000
													CHANNELS 3 Zrotation Yrotation Xrotation
													End Site
													{
														OFFSET 0.000000 0.000000 0.000000
													}
												}
											}
										}
									}
									JOINT LeftHandIndex1
									{
										OFFSET 0.086752 10.030893 2.345280
										CHANNELS 3 Zrotation Yrotation Xrotation
										JOINT LeftHandIndex2
										{
											OFFSET -0.000000 4.061090 0.000000
											CHANNELS 3 Zrotation Yrotation Xrotation
											JOINT LeftHandIndex3
											{
												OFFSET 0.000000 3.248873 0.000000
												CHANNELS 3 Zrotation Yrotation Xrotation
												JOINT LeftHandIndex4
												{
													OFFSET 0.000000 2.639709 -0.000000
													CHANNELS 3 Zrotation Yrotation Xrotation
													End Site
													{
														OFFSET 0.000000 0.000000 0.000000
													}
												}
											}
										}
									}
									JOINT LeftHandMiddle1
									{
										OFFSET -0.104102 9.502952 0.006768
										CHANNELS 3 Zrotation Yrotation Xrotation
										JOINT LeftHandMiddle2
										{
											OFFSET 0.000000 4.568727 -0.000000
											CHANNELS 3 Zrotation Yrotation Xrotation
											JOINT LeftHandMiddle3
											{
												OFFSET 0.000000 3.654981 0.000000
												CHANNELS 3 Zrotation Yrotation Xrotation
												JOINT LeftHandMiddle4
												{
													OFFSET -0.000000 2.741236 -0.000000
													CHANNELS 3 Zrotation Yrotation Xrotation
													End Site
													{
														OFFSET 0.000000 0.000000 0.000000
													}
												}
											}
										}
									}
									JOINT LeftHandRing1
									{
										OFFSET -0.086752 8.921708 -2.267442
										CHANNELS 3 Zrotation Yrotation Xrotation
										JOINT LeftHandRing2
										{
											OFFSET -0.000000 4.061090 -0.000000
											CHANNELS 3 Zrotation Yrotation Xrotation
											JOINT LeftHandRing3
											{
												OFFSET 0.000000 3.654981 0.000000
												CHANNELS 3 Zrotation Yrotation Xrotation
												JOINT LeftHandRing4
												{
													OFFSET -0.000000 2.741236 -0.000000
													CHANNELS 3 Zrotation Yrotation Xrotation
													End Site
													{
														OFFSET 0.000000 0.000000 0.000000
													}
												}
											}
										}
									}
									JOINT LeftHandPinky1
									{
										OFFSET 0.173504 7.976997 -4.467199
										CHANNELS 3 Zrotation Yrotation Xrotation
										JOINT LeftHandPinky2
										{
											OFFSET 0.000000 3.350399 0.000000
											CHANNELS 3 Zrotation Yrotation Xrotation
											JOINT LeftHandPinky3
											{
												OFFSET -0.000000 2.842763 -0.000000
												CHANNELS 3 Zrotation Yrotation Xrotation
												JOINT LeftHandPinky4
												{
													OFFSET -0.000000 2.639709 -0.000000
													CHANNELS 3 Zrotation Yrotation Xrotation
													End Site
													{
														OFFSET 0.000000 0.000000 0.000000
													}
												}
											}
										}
									}
									JOINT LeftForeArmEnd
									{
										OFFSET 0.000000 0.000000 0.000000
										CHANNELS 3 Zrotation Yrotation Xrotation
										End Site
										{
											OFFSET 0.000000 0.000000 0.000000
										}
									}
								}
								JOINT LeftArmEnd
								{
									OFFSET 0.000000 0.000000 0.000000
									CHANNELS 3 Zrotation Yrotation Xrotation
									End Site
									{
										OFFSET 0.000000 0.000000 0.000000
									}
								}
							}
						}
					}
				}
			}
		}
	}
	JOINT RightUpLeg
	{
		OFFSET -11.289943 0.000000 0.000000
		CHANNELS 3 Zrotation Yrotation Xrotation
		JOINT RightLeg
		{
			OFFSET -0.000000 -38.200325 -0.000000
			CHANNELS 3 Zrotation Yrotation Xrotation
			JOINT RightFoot
			{
				OFFSET -0.000000 -39.900856 -0.000000
				CHANNELS 3 Zrotation Yrotation Xrotation
				JOINT RightToeBase
				{
					OFFSET 0.000000 0.000000 15.261641
					CHANNELS 3 Zrotation Yrotation Xrotation
					JOINT RightToeBaseEnd
					{
						OFFSET 0.000000 0.000000 7.370709
						CHANNELS 3 Zrotation Yrotation Xrotation
						End Site
						{
							OFFSET 0.000000 0.000000 0.000000
						}
					}
				}
				JOINT RightLegEnd
				{
					OFFSET 0.000000 0.000000 0.000000
					CHANNELS 3 Zrotation Yrotation Xrotation
					End Site
					{
						OFFSET 0.000000 0.000000 0.000000
					}
				}
			}
			JOINT RightUpLegEnd
			{
				OFFSET 0.000000 0.000000 0.000000
				CHANNELS 3 Zrotation Yrotation Xrotation
				End Site
				{
					OFFSET 0.000000 0.000000 0.000000
				}
			}
		}
	}
	JOINT LeftUpLeg
	{
		OFFSET 11.315661 0.000000 -0.000000
		CHANNELS 3 Zrotation Yrotation Xrotation
		JOINT LeftLeg
		{
			OFFSET 0.000000 -38.200325 0.000000
			CHANNELS 3 Zrotation Yrotation Xrotation
			JOINT LeftFoot
			{
				OFFSET 0.000000 -39.900856 -0.000000
				CHANNELS 3 Zrotation Yrotation Xrotation
				JOINT LeftToeBase
				{
					OFFSET 0.000000 0.000000 15.261641
					CHANNELS 3 Zrotation Yrotation Xrotation
					JOINT LeftToeBaseEnd
					{
						OFFSET -0.000000 0.000000 7.539996
						CHANNELS 3 Zrotation Yrotation Xrotation
						End Site
						{
							OFFSET 0.000000 0.000000 0.000000
						}
					}
				}
				JOINT LeftLegEnd
				{
					OFFSET 0.000000 0.000000 0.000000
					CHANNELS 3 Zrotation Yrotation Xrotation
					End Site
					{
						OFFSET 0.000000 0.000000 0.000000
					}
				}
			}
			JOINT LeftUpLegEnd
			{
				OFFSET 0.000000 0.000000 0.000000
				CHANNELS 3 Zrotation Yrotation Xrotation
				End Site
				{
					OFFSET 0.000000 0.000000 0.000000
				}
			}
		}
	}
}
MOTION
Frames: 4
Frame Time: 0.016667
-0.087744 88.518600 4.106688 0.068919 0.010845 -8.942659 0.442413 -0.081069 6.970063 -1.393128 0.231170 0.120594 0.170773 -1.686916 3.633183 0.138037 -0.360124 1.632820 2.669741 1.360534 7.336633 0.504304 2.812674 -2.138667 -0.849185 -0.825950 -18.014040 0.000000 0.000000 0.000000 93.328857 -0.532019 9.249256 66.106537 -37.119999 4.142115 -0.118903 9.345549 21.275049 6.844851 17.264309 -6.195918 11.236529 -1.888869 39.607235 0.000000 0.000000 -27.360001 0.000000 0.000000 -18.999998 0.000000 0.000000 0.000000 16.490267 0.000000 -10.411167 11.543185 0.000000 0.000000 11.543185 0.000000 0.000000 0.000000 0.000000 0.000000 15.680838 0.000000 -10.611974 10.976586 0.000000 0.000000 10.976586 0.000000 0.000000 0.000000 0.000000 0.000000 17.926441 -0.000000 -9.075776 12.548511 0.000000 0.000000 12.548511 0.000000 0.000000 0.000000 0.000000 0.000000 19.209045 0.000000 -9.362014 13.446335 0.000000 0.000000 13.446335 0.000000 0.000000 0.000000 0.000000 0.000000 0.000000 0.000000 0.000000 0.000000 0.000000 0.000000 -92.264565 0.184447 4.508586 -67.528290 31.026754 -4.429007 -0.724142 -2.563973 37.835682 -1.518325 -21.259672 -14.755241 -10.637670 1.840800 39.870987 0.000000 0.000000 -25.919998 0.000000 0.000000 -18.000004 0.000000 0.000000 0.000000 -13.737988 0.000000 -10.271245 -9.616590 0.000000 0.000000 -9.616590 0.000000 0.000000 0.000000 0.000000 0.000000 -13.566373 0.000000 -10.909574 -9.496462 0.000000 0.000000 -9.496462 0.000000 0.000000 0.000000 0.000000 0.000000 -16.906538 -0.000000 -11.246544 -11.834577 0.000000 0.000000 -11.834577 0.000000 0.000000 0.000000 0.000000 0.000000 -19.165680 -0.000000 -11.938169 -13.415976 0.000000 0.000000 -13.415976 0.000000 0.000000 0.000000 0.000000 0.000000 0.000000 0.000000 0.000000 0.000000 0.000000 0.000000 -1.938379 -12.547268 14.781528 -0.051716 -0.791252 3.432337 -0.790947 -7.985100 17.498075 -0.970069 1.135202 -17.740036 0.000000 0.000000 0.000000 0.000000 0.000000 0.000000 0.000000 0.000000 0.000000 -1.007299 -7.770874 9.427107 0.095226 0.552794 9.721728 1.664590 4.975721 15.629977 0.746320 -0.643483 -19.338871 0.000000 0.000000 0.000000 0.000000 0.000000 0.000000 0.000000 0.000000 0.000000 
0.001982 88.516525 3.874372 -0.504632 -0.147010 -9.310155 1.446728 -0.198953 6.497132 -0.743598 0.113706 1.757484 -0.275326 -1.020141 1.628442 -0.800810 -0.332384 3.087011 3.763051 1.679720 4.312299 1.418802 3.357932 -2.797688 -0.711564 -1.017318 -16.989920 0.000000 0.000000 0.000000 92.560028 -0.457410 9.825596 68.094803 -34.873020 3.810853 0.034572 11.370787 20.661930 5.894899 14.619580 -4.997644 11.240345 -1.879704 39.648781 0.000002 0.000024 -27.433079 0.000020 0.000036 -18.956945 0.000007 0.000001 -0.000026 16.595222 -0.124970 -8.978942 11.400755 -0.017198 -0.108717 11.575033 0.001924 -0.119612 -0.000026 0.000025 -0.000020 16.117783 -0.044684 -9.678849 10.858403 -0.002720 -0.045327 10.883985 0.001316 -0.045545 0.000013 0.000028 0.000005 17.987967 0.032480 -8.744099 11.923762 0.013234 0.073540 11.919408 -0.003957 0.063927 -0.000007 0.001044 -0.000001 18.430470 0.090730 -9.370716 12.425992 -0.010690 0.402088 12.209821 -0.028740 0.330728 -0.000330 -0.000006 0.000012 0.000000 0.000000 0.000000 0.000000 0.000000 0.000000 -89.944618 -0.001263 6.637019 -69.457932 28.026159 -4.630634 -0.788119 -3.965603 37.820946 2.067533 -17.811029 -16.813080 -10.344591 1.770585 40.032768 0.000001 0.000022 -25.104782 -0.000067 -0.000025 -17.512854 -0.000300 -0.000004 0.001052 -13.873087 -0.074135 -9.162490 -9.588604 -0.037710 -0.072858 -9.969616 -0.025347 -0.046117 0.000018 0.000286 0.000013 -13.604692 -0.025735 -9.795440 -9.401727 -0.014711 -0.020152 -9.297244 -0.004545 -0.009428 0.001061 -0.000042 -0.000023 -16.501337 0.067567 -9.815143 -11.385521 0.018223 -0.020164 -11.261937 0.008989 -0.006550 0.000118 0.000010 0.000009 -17.874928 0.170954 -10.177380 -12.495517 0.056058 0.007067 -12.432458 0.012313 -0.063323 -0.000293 -0.000010 -0.000034 0.000000 0.000000 0.000000 0.000000 0.000000 0.000000 -2.337754 -11.997630 14.693237 -0.078820 -0.782150 4.154657 -1.135934 -9.541593 17.415548 -1.101258 1.027918 -17.357939 0.000000 0.000000 0.000000 0.000000 0.000000 0.000000 0.000000 0.000000 0.000000 0.525959 -4.661310 9.743526 0.094888 0.493648 9.631670 1.817679 2.551297 16.023540 0.558955 -0.457727 -20.228947 0.000000 0.000000 0.000000 0.000000 0.000000 0.000000 0.000000 0.000000 0.000000 
0.014980 88.504478 3.808616 -0.434606 0.000105 -9.219978 1.311429 -0.211795 6.541878 -0.805236 0.105866 1.833111 -0.209418 -1.184778 1.551115 -0.787670 -0.400896 3.135463 3.821860 1.564223 4.140683 1.423010 3.292975 -2.738342 -0.687822 -0.995589 -16.899940 0.000000 0.000000 0.000000 92.363121 -0.425372 9.973642 68.280769 -34.745159 3.937101 -0.019451 11.474414 20.907724 5.777910 14.049826 -5.059574 11.246318 -1.879230 39.646408 -0.000003 0.000042 -27.466078 0.000024 0.000030 -18.981232 0.000013 0.000003 -0.000038 16.593281 -0.122087 -8.771044 11.468702 -0.009844 -0.150886 11.651145 0.010101 -0.152878 -0.000007 0.000037 -0.000016 16.090883 -0.043938 -9.492671 10.913472 -0.001807 -0.057112 10.915767 0.003150 -0.052595 0.000014 0.000008 -0.000007 17.864458 0.029002 -8.627431 11.880388 0.011909 0.075672 11.887315 -0.004546 0.068104 -0.000014 0.001158 -0.000006 18.219091 0.083168 -9.341025 12.329057 -0.010736 0.398262 12.095144 -0.030535 0.330643 -0.000424 0.000002 0.000005 0.000000 0.000000 0.000000 0.000000 0.000000 0.000000 -89.561516 -0.076439 6.753459 -70.274261 27.440456 -4.788921 -0.629946 -3.852585 37.831722 2.491900 -17.256565 -16.916143 -10.287823 1.763897 40.047646 0.000007 0.000026 -24.993612 -0.000086 -0.000016 -17.441822 -0.000546 -0.000000 0.000833 -13.565153 -0.068633 -8.748799 -9.497581 -0.038387 -0.082714 -9.890160 -0.025051 -0.058745 0.000026 0.000224 0.000013 -13.312030 -0.023803 -9.516711 -9.311713 -0.014883 -0.027302 -9.205905 -0.004556 -0.015262 0.001322 -0.000044 -0.000073 -16.170572 0.068398 -9.732910 -11.245141 0.019182 -0.010794 -11.127820 0.009602 -0.000298 0.000151 0.000016 0.000008 -17.502687 0.168751 -10.270599 -12.321546 0.055733 0.037318 -12.248181 0.012353 -0.038689 -0.000292 0.000005 -0.000054 0.000000 0.000000 0.000000 0.000000 0.000000 0.000000 -2.475430 -12.104757 14.447453 -0.079988 -0.787920 4.320286 -0.944960 -9.611282 17.430004 -1.134541 1.052156 -17.345156 0.000000 0.000000 0.000000 0.000000 0.000000 0.000000 0.000000 0.000000 0.000000 0.462046 -4.666577 9.497257 0.095029 0.475874 9.822143 1.859312 2.411956 16.048088 0.535135 -0.457879 -20.189713 0.000000 0.000000 0.000000 0.000000 0.000000 0.000000 0.000000 0.000000 0.000000 
0.012893 88.484474 3.744286 -0.357998 0.110804 -9.134480 1.190878 -0.214051 6.595503 -0.872208 0.109341 1.946532 -0.148746 -1.291275 1.457120 -0.799181 -0.445532 3.221126 3.694867 1.563608 3.892384 1.427331 3.240889 -2.792147 -0.658364 -0.996493 -16.860401 0.000000 0.000000 0.000000 92.156693 -0.383652 10.096548 68.461472 -34.503040 4.039233 -0.032796 11.679141 21.349260 5.650492 13.338228 -5.079404 11.281736 -1.876459 39.635399 -0.000001 0.000040 -27.581852 0.000022 0.000031 -19.055662 0.000014 0.000003 -0.000038 16.732061 -0.125916 -8.608442 11.644186 0.005975 -0.207906 11.821446 0.026513 -0.200157 -0.000007 0.000036 -0.000017 16.203365 -0.045616 -9.332740 11.070017 0.003031 -0.075657 11.055774 0.007888 -0.066300 0.000015 0.000002 -0.000005 17.884975 0.029165 -8.502078 11.931741 0.004967 0.084756 11.944147 -0.008861 0.077551 -0.000012 0.001208 -0.000006 18.090162 0.085529 -9.264741 12.306053 -0.026873 0.412480 12.059007 -0.044645 0.344866 -0.000519 0.000002 -0.000005 0.000000 0.000000 0.000000 0.000000 0.000000 0.000000 -89.240410 -0.125844 6.826223 -70.706085 27.069267 -4.750619 -0.499368 -3.995048 38.031082 2.972345 -16.416754 -16.710968 -10.212543 1.751083 40.080181 0.000005 0.000026 -24.843061 -0.000093 -0.000017 -17.340876 -0.000816 -0.000002 0.000753 -13.149262 -0.071276 -8.285752 -9.438271 -0.033658 -0.079227 -9.839238 -0.019759 -0.059079 0.000024 0.000213 0.000015 -12.947647 -0.024933 -9.175311 -9.242563 -0.013130 -0.028256 -9.145025 -0.002909 -0.016429 0.001575 -0.000044 -0.000101 -15.805609 0.071559 -9.584632 -11.133343 0.015485 -0.010156 -11.017509 0.007346 0.001059 0.000096 0.000016 0.000007 -17.194189 0.173487 -10.273666 -12.183823 0.044638 0.041010 -12.115770 0.004571 -0.030613 -0.000290 0.000004 -0.000054 0.000000 0.000000 0.000000 0.000000 0.000000 0.000000 -2.606250 -12.084314 14.162057 -0.080984 -0.783813 4.564095 -0.804638 -9.647817 17.419514 -1.157164 1.062047 -17.375326 0.000000 0.000000 0.000000 0.000000 0.000000 0.000000 0.000000 0.000000 0.000000 0.392259 -4.668700 9.211047 0.096377 0.463184 10.151917 1.888065 2.339952 16.008484 0.512688 -0.451624 -20.204069 0.000000 0.000000 0.000000 0.000000 0.000000 0.000000 0.000000 0.000000 0.000000 
